<?xml version="1.0" encoding="UTF-8"?>
<svg id="Layer_2" data-name="Layer 2" xmlns="http://www.w3.org/2000/svg" width="1701.91" height="194.39" viewBox="0 0 1701.91 194.39">
  <defs>
    <style>
      .cls-1 {
        fill: #003da5;
      }

      .cls-2 {
        fill: #7c878e;
      }
    </style>
  </defs>
  <g id="Layer_1-2" data-name="Layer 1">
    <path class="cls-1" d="M227.19,59.33L167.37,2.27c-5.18-4.94-13.76-1.27-13.76,5.89v15.5c0,4.51-3.67,8.16-8.18,8.14l-39.75-.19c-4.51-.02-8.18,3.63-8.18,8.14v9.24c0,4.48,3.63,8.12,8.11,8.14l57.96.22c4.28.02,7.78-3.47,7.78-7.75v-4.94s.23-3.08,3.3-3.59c2.3-.38,3.62,1.3,3.62,1.3l21.35,19.72c1.85,1.64,1.94,4.43.21,6.19l-21.5,22.38s-1.66,2.05-4.17,1.16c-2.64-.93-2.84-3.24-2.84-3.24v-8.37c0-3.43-4.03-3.8-4.03-3.8h-6.71l.08-.08h-76.53c-4.5,0-8.14-3.65-8.14-8.14v-14.92c0-7.25-8.77-10.89-13.9-5.76L2.39,107.23c-3.23,3.23-3.17,8.49.14,11.65l59.82,57.07c5.18,4.94,13.76,1.27,13.76-5.89v-15.5c0-4.51,3.67-8.16,8.18-8.14l39.74.19c4.51.02,8.18-3.63,8.18-8.14v-9.24c0-4.48-3.63-8.13-8.11-8.14l-57.97-.22c-4.29-.02-7.77,3.45-7.77,7.74v4.95s-.23,3.08-3.3,3.59c-2.3.38-3.62-1.3-3.62-1.3l-21.35-19.72c-1.85-1.64-1.94-4.43-.21-6.19l21.5-22.38s1.66-2.05,4.17-1.16c2.64.93,2.84,3.24,2.84,3.24v8.37c0,3.43,4.03,3.8,4.03,3.8h.62l-.08.08h82.62c4.5,0,8.14,3.65,8.14,8.14v14.92c0,7.25,8.77,10.89,13.9,5.76l59.72-59.7c3.23-3.23,3.17-8.49-.14-11.65h0Z"/>
    <path class="cls-1" d="M303.05,42.56v25.21c0,2.07,1.68,3.75,3.75,3.75h53.54c3.16,0,4.9,3.66,2.92,6.11l-13.44,16.65c-.71.88-1.79,1.39-2.92,1.39h-40.1c-2.07,0-3.75,1.68-3.75,3.75v48.03c0,2.07-1.68,3.75-3.75,3.75h-21.78c-2.07,0-3.75-1.68-3.75-3.75V18.04c0-2.07,1.68-3.75,3.75-3.75h95.49c2.07,0,3.75,1.68,3.75,3.75v17.02c0,2.07-1.68,3.75-3.75,3.75h-66.2c-2.07,0-3.75,1.68-3.75,3.75h0Z"/>
    <path class="cls-1" d="M467.04,42.67v104.69c0,2.13-1.73,3.86-3.86,3.86h-21.57c-2.13,0-3.86-1.73-3.86-3.86V42.67c0-2.13-1.73-3.86-3.86-3.86h-40.25c-2.13,0-3.86-1.73-3.86-3.86v-16.8c0-2.13,1.73-3.86,3.86-3.86h117.72c2.13,0,3.86,1.73,3.86,3.86v16.8c0,2.13-1.73,3.86-3.86,3.86h-40.44c-2.13,0-3.86,1.73-3.86,3.86h0Z"/>
    <path class="cls-2" d="M606.32,41.93v106.17c0,1.72-1.4,3.12-3.12,3.12h-23.06c-1.72,0-3.12-1.4-3.12-3.12V41.93c0-1.72-1.4-3.12-3.12-3.12h-41.74c-1.72,0-3.12-1.4-3.12-3.12v-18.29c0-1.72,1.4-3.12,3.12-3.12h119.2c1.72,0,3.12,1.4,3.12,3.12v18.29c0,1.72-1.4,3.12-3.12,3.12h-41.93c-1.72,0-3.12,1.4-3.12,3.12h0Z"/>
    <path class="cls-2" d="M735.65,97.97c0,5.13-.57,9.7-.76,11.6h-58.99c-1.78,0-3.27,1.63-2.88,3.37,2.45,10.84,11.9,16.97,25.92,16.97,10.94,0,22.24-2.62,28.98-5.23,1.91-.74,3.92.63,3.92,2.68v17.82c0,1.13-.58,2.16-1.61,2.62-6.43,2.87-18.43,6.08-33.95,6.08-32.71,0-53.25-21.12-53.25-50.21s21.12-50.21,48.31-50.21c29.29,0,44.32,20.93,44.32,44.51h0ZM691.14,75.9c-11.41,0-17.88,8.75-18.64,19.02h35.95c.38-10.27-5.71-19.02-17.31-19.02h0Z"/>
    <path class="cls-2" d="M807.26,128.89c8.36-.53,15.87-3.69,20.25-6.11,1.22-.67,2.65.22,2.65,1.61v21.33c0,.69-.33,1.3-.95,1.6-4.35,2.16-13.89,6.57-28.15,6.57-30.43,0-50.6-21.31-50.6-50.21s20.16-50.21,50.59-50.21c14.07,0,23.27,4.23,27.58,6.37.62.31.95.91.95,1.6v21.42c0,1.38-1.48,2.3-2.67,1.61-5.52-3.2-13.66-6.09-22.06-6.09-9.97,0-18.03,4.36-22.31,11.8-10.02,17.41,4.65,39.98,24.7,38.72h0Z"/>
    <path class="cls-2" d="M874.21,14.28c2.03,0,3.67,1.65,3.67,3.67v43.49c0,4.37-.38,8.55-.38,10.46,4.94-7.8,15.98-18.45,31.57-18.45,21.5,0,33.1,13.12,33.1,38.23v55.86c0,2.03-1.65,3.67-3.67,3.67h-21.19c-2.03,0-3.67-1.64-3.67-3.67v-51.1c0-9.32-2.66-17.12-12.93-17.12-13.31,0-22.25,10.27-22.25,24.54v43.68c0,2.03-1.65,3.67-3.67,3.67h-21.18c-2.03,0-3.67-1.64-3.67-3.67V17.96c0-2.03,1.65-3.67,3.67-3.67h20.61Z"/>
    <path class="cls-2" d="M992.94,56.12l.75,10.84c.19,3.42-.57,5.7-.75,6.66h.37c4-8.75,16.55-20.16,32.72-20.16,21.5,0,33.1,13.12,33.1,38.23v57.29c0,1.24-1,2.24-2.24,2.24h-24.06c-1.24,0-2.24-1-2.24-2.24v-52.54c0-9.32-2.66-17.12-12.94-17.12-13.31,0-22.25,10.27-22.25,24.54v45.12c0,1.24-1,2.24-2.24,2.24h-24.05c-1.24,0-2.24-1-2.24-2.24V58.36c0-1.24,1-2.24,2.24-2.24h23.82Z"/>
    <path class="cls-2" d="M1177.99,103.67c0,28.91-21.49,50.21-50.78,50.21s-50.59-21.31-50.59-50.21,21.3-50.21,50.59-50.21,50.78,21.31,50.78,50.21ZM1151.17,103.67c0-15.79-10.47-26.25-23.96-26.25s-23.77,10.46-23.77,26.25,10.27,26.24,23.77,26.24,23.96-10.46,23.96-26.24Z"/>
    <path class="cls-2" d="M1199.59,14.28h22.78c1.54,0,2.78,1.24,2.78,2.78v100.68c0,8.75,3.81,11.8,9.52,11.8,3.8,0,7.79-1.14,9.51-1.9v21.46c0,1.24-.78,2.3-1.96,2.67-3.25,1.02-8.95,2.12-16.11,2.12-16.16,0-29.29-8.18-29.29-29.87V17.06c0-1.54,1.24-2.78,2.78-2.78h0Z"/>
    <path class="cls-2" d="M1354.84,103.67c0,28.91-21.49,50.21-50.78,50.21s-50.59-21.31-50.59-50.21,21.3-50.21,50.59-50.21,50.78,21.31,50.78,50.21ZM1328.03,103.67c0-15.79-10.47-26.25-23.96-26.25s-23.77,10.46-23.77,26.25,10.27,26.24,23.77,26.24,23.96-10.46,23.96-26.24Z"/>
    <path class="cls-2" d="M1421.78,135.05c25.49,3.23,37.85,10.46,37.85,27.95,0,19.78-20.55,31.38-50.02,31.38-26.25,0-45.65-8.56-45.65-25.11,0-8.29,6.23-15.32,15.46-19.46,2.27-1.02,2.64-4.26.55-5.61-3.51-2.25-5.73-5.68-5.73-10.12s2.99-9.11,8.8-12.48c2.23-1.3,2.31-4.39.08-5.7-9.85-5.85-16.11-15.55-16.11-27.66,0-21.11,18.45-34.8,41.27-34.8,5.53,0,11.07.9,15.91,2.51.3.1.61.15.93.15h31.4c1.83,0,3.31,1.48,3.31,3.31v16.84h-11.03c-3.05,0-3.62-.57-4.38-.57,2.67,3.43,4.38,7.61,4.38,12.55,0,18.45-14.08,30.81-32.91,33.29-7.99,1.33-14.27,3.61-14.27,6.47,0,3.8,6.85,5.13,20.16,7.04h0ZM1431.48,165.1c0-7.04-6.85-11.6-22.25-11.6-10.65,0-18.26,5.32-18.26,11.79,0,7.41,8.18,11.22,19.4,11.22,11.98,0,21.11-4.56,21.11-11.41h0ZM1423.88,88.83c0-8.74-6.09-15.4-15.6-15.4s-15.4,6.66-15.4,15.4,6.09,15.22,15.4,15.22,15.6-6.47,15.6-15.22Z"/>
    <path class="cls-2" d="M1488.33,13.58c9.51-.72,18.19,7.32,17.45,16.83-.65,8.3-6.75,13.73-15.73,13.73-9.7,0-15.78-6.09-15.78-15.22s5.37-14.68,14.06-15.34h0ZM1504.31,57.78v91.79c0,.91-.74,1.65-1.65,1.65h-25.22c-.91,0-1.65-.74-1.65-1.65V57.78c0-.91.74-1.65,1.65-1.65h25.22c.91,0,1.65.74,1.65,1.65Z"/>
    <path class="cls-2" d="M1616.14,97.97c0,5.13-.57,9.7-.76,11.6h-58.67c-1.95,0-3.58,1.78-3.13,3.67,2.56,10.65,11.96,16.67,25.85,16.67,10.73,0,21.81-2.52,28.58-5.08,2.1-.79,4.32.69,4.32,2.94v17.24c0,1.23-.65,2.37-1.78,2.87-6.47,2.86-18.4,6-33.79,6-32.71,0-53.25-21.12-53.25-50.21s21.12-50.21,48.31-50.21c29.29,0,44.32,20.93,44.32,44.51h0ZM1571.63,75.9c-11.41,0-17.88,8.75-18.64,19.02h35.95c.38-10.27-5.7-19.02-17.31-19.02Z"/>
    <path class="cls-2" d="M1659.31,113.37c-17.69-4.94-30.24-12.36-30.24-30.81s14.08-29.1,36.14-29.1c12.56,0,23.2,2.88,29.28,5.26.97.38,1.54,1.31,1.54,2.35v18.64c0,1.79-1.82,3.07-3.47,2.36-6.02-2.58-13.75-4.78-20.69-5.41-3.05-.19-6.09-.19-8.75.38-3.99.76-7.98,2.67-7.98,6.85,0,4.75,4.75,7.23,14.83,10.27,21.69,6.09,31.95,13.7,31.95,30.81,0,18.26-15.03,28.92-39.19,28.92-13.43,0-23.91-2.8-30.81-5.63-.95-.39-1.52-1.32-1.52-2.35v-19.16c0-1.88,1.92-3.05,3.62-2.28,8.73,3.93,20.19,6.97,28.32,6.97,7.04,0,13.51-1.89,13.51-7.6,0-5.14-5.7-7.23-16.54-10.47h0Z"/>
  </g>
</svg>