<?xml version="1.0" encoding="UTF-8"?>
<svg id="Layer_2" data-name="Layer 2" xmlns="http://www.w3.org/2000/svg" width="1656.25" height="379.53" viewBox="0 0 1656.25 379.53">
  <defs>
    <style>
      .cls-1 {
        fill: #003da5;
      }

      .cls-2 {
        fill: #7c878e;
      }
    </style>
  </defs>
  <g id="Layer_1-2" data-name="Layer 1">
    <g id="Layer_5" data-name="Layer 5">
      <path class="cls-1" d="M444.15,127.27L327.21,15.71c-10.13-9.66-26.9-2.48-26.9,11.52v30.3c0,8.82-7.17,15.96-15.99,15.92l-77.7-.36c-8.82-.04-15.99,7.1-15.99,15.92v18.06c0,8.77,7.09,15.89,15.86,15.92l113.31.43c8.36.03,15.2-6.78,15.2-15.15v-9.65s.44-6.01,6.46-7.02c4.49-.75,7.08,2.53,7.08,2.53l41.73,38.56c3.61,3.21,3.79,8.65.4,12.1l-42.03,43.76s-3.25,4.01-8.15,2.27c-5.15-1.82-5.55-6.33-5.55-6.33v-16.37c0-6.71-7.88-7.43-7.88-7.43h-13.13l.16-.15h-149.6c-8.79,0-15.92-7.13-15.92-15.92v-29.16c0-14.18-17.14-21.28-27.17-11.26L4.66,220.89c-6.32,6.32-6.2,16.61.27,22.77l116.94,111.56c10.13,9.66,26.91,2.48,26.91-11.52v-30.3c0-8.82,7.17-15.96,15.99-15.92l77.7.36c8.82.04,15.99-7.1,15.99-15.92v-18.06c0-8.77-7.09-15.89-15.86-15.92l-113.33-.43c-8.38-.03-15.18,6.75-15.18,15.13v9.67s-.44,6.01-6.46,7.02c-4.49.75-7.09-2.53-7.09-2.53l-41.73-38.56c-3.61-3.21-3.79-8.65-.4-12.1l42.03-43.76s3.25-4.01,8.15-2.27c5.15,1.82,5.55,6.33,5.55,6.33v16.37c0,6.71,7.88,7.43,7.88,7.43h1.21l-.16.15h161.52c8.79,0,15.92,7.13,15.92,15.92v29.16c0,14.18,17.14,21.28,27.17,11.26l116.74-116.7c6.32-6.32,6.2-16.61-.27-22.77h0Z"/>
      <path class="cls-1" d="M831.58,0h-272.89c-10.98,0-19.88,8.9-19.88,19.88v339.75c0,10.98,8.9,19.88,19.88,19.88h52.41c10.99,0,19.9-8.91,19.9-19.9v-106.3c0-10.99,8.91-19.9,19.9-19.9h73.45c10.98,0,20.23-2.81,30.96-13.54l37.48-37.48c10.59-10.59,3.04-22.84-7.94-22.84h-133.96c-10.98,0-19.89-8.9-19.89-19.89v-46.49c0-10.98,8.9-19.89,19.89-19.89h180.68c10.99,0,19.9-8.91,19.9-19.9V19.88c0-10.98-8.9-19.88-19.89-19.88h0Z"/>
      <path class="cls-1" d="M1237.65,0h-327.12c-8.8,0-15.94,7.14-15.94,15.94v41.43c0,8.8,7.14,15.94,15.94,15.94h101.79c8.8,0,15.94,7.14,15.94,15.94v274.32c0,8.81,7.14,15.96,15.96,15.96h60.28c8.81,0,15.96-7.14,15.96-15.96V89.27c0-8.81,7.14-15.96,15.96-15.96h101.25c8.8,0,15.94-7.14,15.94-15.94V15.96c0-8.81-7.14-15.96-15.95-15.96h0Z"/>
      <path class="cls-2" d="M1640.29,0h-327.12c-8.8,0-15.94,7.14-15.94,15.94v41.43c0,8.8,7.14,15.94,15.94,15.94h101.79c8.8,0,15.94,7.14,15.94,15.94v274.32c0,8.81,7.14,15.96,15.96,15.96h60.28c8.81,0,15.96-7.14,15.96-15.96V89.27c0-8.81,7.14-15.96,15.96-15.96h101.25c8.8,0,15.94-7.14,15.94-15.94V15.96c0-8.81-7.14-15.96-15.95-15.96h0Z"/>
    </g>
  </g>
</svg>