<?xml version="1.0" encoding="UTF-8"?>
<svg id="Layer_2" data-name="Layer 2" xmlns="http://www.w3.org/2000/svg" width="1681.24" height="192.03" viewBox="0 0 1681.24 192.03">
  <defs>
    <style>
      .cls-1, .cls-2 {
        fill: #fff;
      }

      .cls-2 {
        isolation: isolate;
        opacity: .7;
      }
    </style>
  </defs>
  <g id="Layer_1-2" data-name="Layer 1">
    <g>
      <path class="cls-1" d="M224.44,58.61L165.34,2.24c-5.12-4.88-13.6-1.26-13.6,5.82v15.31c0,4.46-3.62,8.07-8.08,8.04l-39.26-.18c-4.46-.02-8.08,3.59-8.08,8.04v9.13c0,4.43,3.58,8.03,8.01,8.04l57.26.22c4.23.02,7.68-3.43,7.68-7.65v-4.88s.22-3.04,3.26-3.55c2.27-.38,3.58,1.28,3.58,1.28l21.09,19.48c1.83,1.62,1.92,4.37.2,6.11l-21.24,22.11s-1.64,2.02-4.12,1.15c-2.6-.92-2.81-3.2-2.81-3.2v-8.27c0-3.39-3.98-3.76-3.98-3.76h-6.63l.08-.08h-75.6c-4.44,0-8.04-3.6-8.04-8.04v-14.73c0-7.17-8.66-10.76-13.73-5.69L2.36,105.92c-3.19,3.19-3.13,8.39.14,11.51l59.09,56.37c5.12,4.88,13.6,1.26,13.6-5.82v-15.31c0-4.46,3.62-8.07,8.08-8.04l39.26.18c4.46.02,8.08-3.59,8.08-8.04v-9.13c0-4.43-3.58-8.03-8.01-8.04l-57.27-.22c-4.23-.02-7.67,3.41-7.67,7.64v4.89s-.22,3.04-3.26,3.55c-2.27.38-3.58-1.28-3.58-1.28l-21.09-19.48c-1.82-1.62-1.92-4.37-.2-6.11l21.24-22.11s1.64-2.02,4.12-1.15c2.6.92,2.81,3.2,2.81,3.2v8.27c0,3.39,3.98,3.76,3.98,3.76h.61l-.08.08h81.62c4.44,0,8.04,3.6,8.04,8.04v14.73c0,7.17,8.66,10.76,13.73,5.69l58.99-58.97c3.2-3.19,3.13-8.39-.14-11.51h0Z"/>
      <path class="cls-1" d="M299.38,42.04v24.9c0,2.05,1.66,3.71,3.71,3.71h52.89c3.12,0,4.84,3.61,2.89,6.04l-13.28,16.44c-.7.87-1.77,1.38-2.89,1.38h-39.61c-2.05,0-3.71,1.66-3.71,3.71v47.45c0,2.05-1.66,3.71-3.71,3.71h-21.52c-2.05,0-3.71-1.66-3.71-3.71V17.81c0-2.05,1.66-3.71,3.71-3.71h94.33c2.05,0,3.71,1.66,3.71,3.71v16.81c0,2.05-1.66,3.71-3.71,3.71h-65.4c-2.05,0-3.71,1.66-3.71,3.71h0Z"/>
      <path class="cls-1" d="M461.38,42.15v103.42c0,2.11-1.71,3.82-3.82,3.82h-21.31c-2.11,0-3.82-1.71-3.82-3.82V42.15c0-2.11-1.71-3.82-3.82-3.82h-39.76c-2.11,0-3.82-1.71-3.82-3.82v-16.6c0-2.11,1.71-3.82,3.82-3.82h116.29c2.11,0,3.82,1.71,3.82,3.82v16.6c0,2.11-1.71,3.82-3.82,3.82h-39.95c-2.11,0-3.82,1.71-3.82,3.82h0Z"/>
      <path class="cls-2" d="M598.96,41.42v104.88c0,1.7-1.38,3.08-3.08,3.08h-22.78c-1.7,0-3.08-1.38-3.08-3.08V41.42c0-1.7-1.38-3.08-3.08-3.08h-41.23c-1.7,0-3.08-1.38-3.08-3.08v-18.07c0-1.7,1.38-3.08,3.08-3.08h117.76c1.7,0,3.08,1.38,3.08,3.08v18.07c0,1.7-1.38,3.08-3.08,3.08h-41.42c-1.7,0-3.08,1.38-3.08,3.08h0Z"/>
      <path class="cls-2" d="M726.72,96.77c0,5.07-.57,9.58-.75,11.46h-58.27c-1.76,0-3.23,1.61-2.84,3.33,2.42,10.71,11.76,16.77,25.6,16.77,10.8,0,21.97-2.59,28.62-5.16,1.89-.73,3.87.63,3.87,2.65v17.6c0,1.11-.57,2.14-1.59,2.59-6.35,2.84-18.2,6-33.54,6-32.31,0-52.61-20.86-52.61-49.6s20.86-49.6,47.72-49.6c28.93,0,43.78,20.67,43.78,43.97h0ZM682.75,74.97c-11.27,0-17.66,8.65-18.41,18.79h35.51c.38-10.14-5.64-18.79-17.1-18.79h0Z"/>
      <path class="cls-2" d="M797.46,127.33c8.26-.52,15.68-3.64,20.01-6.04,1.2-.66,2.62.21,2.62,1.59v21.07c0,.68-.32,1.28-.93,1.58-4.3,2.13-13.72,6.49-27.81,6.49-30.06,0-49.98-21.05-49.98-49.6s19.92-49.6,49.98-49.6c13.9,0,22.99,4.18,27.24,6.3.61.3.94.9.94,1.58v21.16c0,1.36-1.46,2.27-2.64,1.59-5.45-3.17-13.49-6.01-21.79-6.01-9.85,0-17.81,4.31-22.04,11.66-9.9,17.2,4.6,39.5,24.4,38.25h0Z"/>
      <path class="cls-2" d="M863.59,14.11c2.01,0,3.63,1.62,3.63,3.63v42.96c0,4.32-.38,8.45-.38,10.33,4.88-7.71,15.79-18.23,31.19-18.23,21.24,0,32.7,12.97,32.7,37.77v55.18c0,2.01-1.62,3.63-3.63,3.63h-20.93c-2.01,0-3.63-1.62-3.63-3.63v-50.48c0-9.2-2.62-16.91-12.78-16.91-13.14,0-21.98,10.14-21.98,24.24v43.15c0,2.01-1.62,3.63-3.63,3.63h-20.92c-2.01,0-3.63-1.62-3.63-3.63V17.74c0-2.01,1.62-3.63,3.63-3.63h20.36,0Z"/>
      <path class="cls-2" d="M980.88,55.44l.74,10.71c.19,3.38-.56,5.64-.74,6.58h.37c3.95-8.65,16.35-19.92,32.32-19.92,21.24,0,32.7,12.97,32.7,37.77v56.59c0,1.22-.99,2.21-2.21,2.21h-23.76c-1.22,0-2.21-.99-2.21-2.21v-51.9c0-9.2-2.62-16.91-12.78-16.91-13.14,0-21.98,10.14-21.98,24.24v44.57c0,1.22-.99,2.21-2.21,2.21h-23.75c-1.22,0-2.21-.99-2.21-2.21V57.65c0-1.22.99-2.21,2.21-2.21h23.53,0Z"/>
      <path class="cls-2" d="M1163.68,102.41c0,28.56-21.23,49.6-50.16,49.6s-49.98-21.05-49.98-49.6,21.04-49.6,49.98-49.6,50.16,21.05,50.16,49.6ZM1137.2,102.41c0-15.6-10.34-25.93-23.67-25.93s-23.48,10.33-23.48,25.93,10.14,25.92,23.48,25.92,23.67-10.33,23.67-25.92Z"/>
      <path class="cls-2" d="M1185.02,14.11h22.5c1.52,0,2.75,1.23,2.75,2.75v99.45c0,8.65,3.76,11.66,9.4,11.66,3.75,0,7.7-1.13,9.39-1.88v21.2c0,1.22-.77,2.27-1.94,2.64-3.21,1.01-8.84,2.1-15.91,2.1-15.97,0-28.93-8.08-28.93-29.51V16.85c0-1.52,1.23-2.75,2.75-2.75Z"/>
      <path class="cls-2" d="M1338.39,102.41c0,28.56-21.23,49.6-50.16,49.6s-49.98-21.05-49.98-49.6,21.04-49.6,49.98-49.6,50.16,21.05,50.16,49.6ZM1311.9,102.41c0-15.6-10.34-25.93-23.67-25.93s-23.48,10.33-23.48,25.93,10.14,25.92,23.48,25.92,23.67-10.33,23.67-25.92Z"/>
      <path class="cls-2" d="M1404.51,133.41c25.18,3.19,37.39,10.33,37.39,27.61,0,19.54-20.3,31-49.42,31-25.93,0-45.1-8.46-45.1-24.8,0-8.19,6.16-15.14,15.28-19.22,2.24-1.01,2.61-4.21.54-5.54-3.47-2.23-5.66-5.61-5.66-9.99s2.95-9,8.69-12.33c2.21-1.28,2.28-4.33.08-5.64-9.73-5.78-15.92-15.36-15.92-27.32,0-20.85,18.22-34.38,40.77-34.38,5.47,0,10.93.89,15.71,2.48.3.1.6.15.92.15h31.02c1.81,0,3.27,1.46,3.27,3.27v16.64h-10.9c-3.01,0-3.57-.57-4.33-.57,2.64,3.39,4.33,7.52,4.33,12.4,0,18.23-13.91,30.44-32.51,32.88-7.89,1.32-14.09,3.57-14.09,6.39,0,3.75,6.77,5.07,19.92,6.95h0ZM1414.09,163.1c0-6.95-6.77-11.46-21.98-11.46-10.52,0-18.04,5.26-18.04,11.65,0,7.32,8.08,11.08,19.17,11.08,11.84,0,20.85-4.51,20.85-11.27h0ZM1406.58,87.75c0-8.64-6.01-15.21-15.41-15.21s-15.21,6.58-15.21,15.21,6.01,15.04,15.21,15.04,15.41-6.39,15.41-15.04Z"/>
      <path class="cls-2" d="M1470.25,13.42c9.4-.71,17.97,7.23,17.24,16.62-.64,8.2-6.66,13.57-15.54,13.57-9.58,0-15.59-6.01-15.59-15.04s5.31-14.5,13.89-15.15h0ZM1486.04,57.07v90.67c0,.9-.73,1.63-1.63,1.63h-24.92c-.9,0-1.63-.73-1.63-1.63V57.07c0-.9.73-1.63,1.63-1.63h24.92c.9,0,1.63.73,1.63,1.63Z"/>
      <path class="cls-2" d="M1596.51,96.77c0,5.07-.56,9.58-.75,11.46h-57.95c-1.93,0-3.54,1.76-3.09,3.63,2.53,10.52,11.82,16.47,25.53,16.47,10.6,0,21.54-2.49,28.23-5.01,2.07-.78,4.26.68,4.26,2.9v17.03c0,1.22-.64,2.34-1.76,2.83-6.39,2.82-18.18,5.93-33.38,5.93-32.31,0-52.61-20.86-52.61-49.6s20.86-49.6,47.72-49.6c28.93,0,43.78,20.67,43.78,43.97h0ZM1552.55,74.97c-11.27,0-17.66,8.65-18.41,18.79h35.51c.38-10.14-5.64-18.79-17.1-18.79h0Z"/>
      <path class="cls-2" d="M1639.16,111.99c-17.47-4.88-29.87-12.21-29.87-30.44s13.91-28.74,35.7-28.74c12.41,0,22.92,2.84,28.92,5.2.95.38,1.52,1.3,1.52,2.32v18.41c0,1.77-1.8,3.03-3.43,2.33-5.94-2.55-13.58-4.72-20.43-5.35-3.01-.19-6.01-.19-8.65.38-3.94.75-7.89,2.64-7.89,6.77,0,4.7,4.69,7.14,14.65,10.14,21.42,6.01,31.57,13.53,31.57,30.44,0,18.04-14.85,28.57-38.71,28.57-13.26,0-23.62-2.76-30.44-5.56-.94-.39-1.5-1.3-1.5-2.32v-18.92c0-1.85,1.89-3.02,3.58-2.25,8.62,3.89,19.95,6.89,27.98,6.89,6.95,0,13.34-1.87,13.34-7.51,0-5.08-5.64-7.14-16.34-10.34h0Z"/>
    </g>
  </g>
</svg>