<?xml version="1.0" encoding="UTF-8"?>
<svg version="1.1" xmlns="http://www.w3.org/2000/svg" width="158" height="192">
<path d="M0 0 C1.83598503 -0.0129007 1.83598503 -0.0129007 3.70906067 -0.02606201 C5.07286029 -0.03049736 6.43666037 -0.0347957 7.80046082 -0.03897095 C9.23105062 -0.04687111 10.66163842 -0.05514001 12.09222412 -0.06375122 C16.79727777 -0.08998027 21.50234037 -0.10527925 26.20744324 -0.11953735 C27.82631117 -0.12489658 29.44517905 -0.13027409 31.06404686 -0.13566971 C37.7972642 -0.1572993 44.53047913 -0.17603666 51.26372242 -0.1872921 C60.9178742 -0.20353563 70.57162377 -0.23672189 80.22562391 -0.29369295 C87.01124895 -0.33237366 93.79676632 -0.35192252 100.58249873 -0.35721266 C104.63661102 -0.3608686 108.69029441 -0.3729149 112.74428749 -0.4053154 C116.55867354 -0.43536381 120.37237048 -0.44171992 124.18684959 -0.42993164 C125.5860895 -0.42971063 126.98536107 -0.43803854 128.38449097 -0.45558548 C140.284368 -0.59669101 140.284368 -0.59669101 143.55905151 2.56536865 C146.9828805 7.80534516 146.47043892 12.31817467 146.50041199 18.46640015 C146.53134949 20.03551147 146.53134949 20.03551147 146.56291199 21.63632202 C146.57064636 23.15515991 146.57064636 23.15515991 146.57853699 24.7046814 C146.58788269 25.62934204 146.59722839 26.55400269 146.6068573 27.50668335 C146.17487973 30.71485647 145.14999163 32.55074158 143.25041199 35.15390015 C140.21904248 37.17481315 139.64365794 37.4047804 136.24752808 37.41891479 C135.4359021 37.42718796 134.62427612 37.43546112 133.78805542 37.44398499 C132.45784111 37.44251213 132.45784111 37.44251213 131.10075378 37.44100952 C129.69540878 37.45125908 129.69540878 37.45125908 128.26167297 37.4617157 C126.22534273 37.47531419 124.18897822 37.48436072 122.15260887 37.48942566 C118.92872562 37.49770383 115.70512713 37.5182001 112.48132324 37.54196167 C105.63356168 37.59023758 98.78577164 37.62312836 91.93791199 37.65390015 C84.01335622 37.68957009 76.08893885 37.73153427 68.16451454 37.7898407 C64.99046616 37.80989218 61.81652402 37.81822646 58.64242554 37.82614136 C56.69103105 37.83911736 54.73964009 37.8526382 52.78825378 37.86679077 C51.46714851 37.86531792 51.46714851 37.86531792 50.11935425 37.86381531 C45.46632884 37.91075583 41.58295666 38.23542621 37.25041199 40.15390015 C34.8613495 44.87370569 35.98553176 51.78976782 35.95524597 57.05331421 C35.94368914 58.45380731 35.92317881 59.8542551 35.89372253 61.25448608 C35.8510687 63.28376005 35.8348865 65.3117338 35.82463074 67.34140015 C35.81004822 68.55182983 35.7954657 69.76225952 35.78044128 71.0093689 C36.33943183 74.74952383 37.31273922 75.86254957 40.25041199 78.15390015 C43.19634537 79.62686684 45.82667317 79.28680898 49.11515808 79.29574585 C50.17397438 79.30095749 50.17397438 79.30095749 51.25418091 79.30627441 C52.78908371 79.31363299 54.32399717 79.31897783 55.85891342 79.32256508 C58.28821728 79.32972374 60.71731835 79.34538539 63.14656067 79.36390686 C70.05419645 79.41640665 76.96172158 79.46436295 83.86955261 79.47982788 C88.09310305 79.48990417 92.31614423 79.51921895 96.53949356 79.56114769 C98.14939651 79.57346777 99.75937136 79.5785771 101.36931992 79.57634926 C103.62239249 79.57399861 105.8740019 79.59614149 108.12687683 79.62387085 C109.40879913 79.62973709 110.69072144 79.63560333 112.01148987 79.64164734 C115.25041199 80.15390015 115.25041199 80.15390015 117.69190979 81.9745636 C119.25041199 84.15390015 119.25041199 84.15390015 119.3099823 87.55331421 C118.05208665 91.82784072 116.46671366 93.65778821 113.29728699 96.76327515 C112.80005127 97.25676453 112.30281555 97.75025391 111.79051208 98.25869751 C110.74163816 99.29419011 109.6856235 100.3224943 108.62297058 101.34384155 C107.00514558 102.89934889 105.4096578 104.4751995 103.81681824 106.0562439 C91.4220369 118.22943931 91.4220369 118.22943931 81.83659363 118.31161499 C80.53988487 118.32700821 80.53988487 118.32700821 79.21697998 118.3427124 C78.29086411 118.35001373 77.36474823 118.35731506 76.41056824 118.36483765 C74.44115878 118.39289925 72.47175785 118.42156366 70.50236511 118.45077515 C67.40381547 118.4920662 64.30542605 118.52896369 61.20671082 118.55526733 C58.2118318 118.58288088 55.21767048 118.62874248 52.22306824 118.67733765 C51.29897659 118.68059052 50.37488495 118.68384338 49.42279053 118.68719482 C44.58204121 118.77962433 41.14950555 118.94646249 37.25041199 122.15390015 C35.92366075 124.80740262 36.11847582 126.82206378 36.10856628 129.79354858 C36.10153183 130.97527649 36.09449738 132.15700439 36.08724976 133.37454224 C36.08308548 134.6578241 36.0789212 135.94110596 36.07463074 137.26327515 C36.05737333 139.27208998 36.04009233 141.28090493 36.02142811 143.28970718 C35.97584342 148.25189567 35.93812499 153.21397477 35.92448425 158.17636108 C35.91633962 160.957018 35.89774077 163.73722566 35.86755371 166.51773071 C35.83941005 169.13752253 35.82649287 171.75753187 35.83041382 174.37747192 C35.67723878 185.47099304 35.67723878 185.47099304 31.25041199 190.15390015 C26.4856795 192.53626639 19.28982601 191.46615474 13.99333191 191.5039978 C12.29495024 191.52054838 10.59663798 191.54782699 8.89860535 191.58602905 C6.44649735 191.64089673 3.99602052 191.66268528 1.54338074 191.67733765 C0.78800522 191.70000702 0.0326297 191.72267639 -0.74563599 191.74603271 C-4.49293729 191.73107301 -6.45102308 191.38316527 -9.45036221 189.08000183 C-12.3584662 185.37901345 -12.37569593 183.4250629 -12.3777771 178.7527771 C-12.38487149 178.01699338 -12.39196587 177.28120966 -12.39927524 176.52312946 C-12.41685114 174.06227903 -12.39875416 171.60300901 -12.38069153 169.1421814 C-12.38583054 167.3761727 -12.39311168 165.61016913 -12.40237427 163.84417725 C-12.42089887 159.0507091 -12.40794304 154.25779671 -12.38828397 149.46435165 C-12.37190491 144.44850766 -12.38070933 139.43269907 -12.38580322 134.4168396 C-12.39032501 125.99349077 -12.37444905 117.57036395 -12.34651184 109.14706421 C-12.31445958 99.40793703 -12.31447541 89.66921027 -12.33172661 79.93005466 C-12.34758921 70.56210369 -12.34085984 61.19429954 -12.3237896 51.82635498 C-12.31691618 47.83919365 -12.31795455 43.85214992 -12.32533455 39.86499023 C-12.33299449 35.1698928 -12.32088079 30.47525117 -12.29348564 25.78023148 C-12.28659767 24.05690489 -12.28650827 22.33353576 -12.29370117 20.61021042 C-12.3023879 18.25797233 -12.28645486 15.90714343 -12.26425171 13.55502319 C-12.26144479 12.23874435 -12.25863787 10.92246552 -12.25574589 9.56629944 C-11.66832932 5.60607286 -10.54716727 3.96096532 -7.74958801 1.15390015 C-5.06958991 -0.1860989 -3.00219354 0.01565933 0 0 Z " fill="#003da5" transform="translate(11.749588012695313,-0.153900146484375)"/>
</svg>
