<?xml version="1.0" encoding="UTF-8"?>
<svg version="1.1" xmlns="http://www.w3.org/2000/svg" width="181" height="192">
<path d="M0 0 C0.70704999 -0.00694553 1.41409999 -0.01389106 2.14257574 -0.02104706 C4.51191591 -0.03934445 6.88025787 -0.02904591 9.24963379 -0.01878357 C10.94815318 -0.02584066 12.64666628 -0.03458479 14.34516907 -0.04489136 C18.95879281 -0.06741761 23.57207404 -0.06443831 28.18573189 -0.05556989 C32.03535279 -0.05046492 35.88490905 -0.05774847 39.7345233 -0.06504196 C48.81432448 -0.08205089 57.89395764 -0.0784647 66.97375488 -0.06175232 C76.34654518 -0.04482397 85.71887001 -0.06067304 95.09160948 -0.0929752 C103.13503327 -0.11964762 111.17831195 -0.12695364 119.22177553 -0.11846012 C124.0274873 -0.11352475 128.83291884 -0.11577952 133.63859558 -0.13624763 C138.15644707 -0.15456837 142.67362734 -0.14869067 147.19144249 -0.12404823 C148.85069631 -0.11902908 150.51000096 -0.12255871 152.16921425 -0.13519669 C154.43235287 -0.1510728 156.69326627 -0.13623217 158.95629883 -0.11352539 C160.85661739 -0.11264593 160.85661739 -0.11264593 162.79532623 -0.1117487 C165.97814941 0.5146637 165.97814941 0.5146637 168.38466644 2.86177158 C170.3422768 6.12087707 170.49416335 8.20034084 170.50939941 11.98731995 C170.51713379 13.83100159 170.51713379 13.83100159 170.52502441 15.71192932 C170.50955566 16.98745667 170.49408691 18.26298401 170.47814941 19.5771637 C170.50135254 21.49625549 170.50135254 21.49625549 170.52502441 23.45411682 C170.51986816 24.68194885 170.51471191 25.90978088 170.50939941 27.17481995 C170.5048877 28.29509583 170.50037598 29.4153717 170.49572754 30.56959534 C169.85210438 34.23187181 168.85060559 35.21325181 165.97814941 37.5146637 C163.44276428 38.02018738 163.44276428 38.02018738 160.55456543 38.02882385 C159.46986465 38.0420871 158.38516388 38.05535034 157.26759338 38.0690155 C156.10086594 38.06397003 154.93413849 38.05892456 153.73205566 38.0537262 C151.92715919 38.07141556 151.92715919 38.07141556 150.08580017 38.08946228 C146.23728553 38.12479765 142.38931318 38.13389899 138.54064941 38.1396637 C134.69571925 38.15600363 130.85103247 38.17805227 127.00621033 38.21128845 C124.61342125 38.23091895 122.2205207 38.2402533 119.82765198 38.23820496 C118.73979904 38.24516388 117.65194611 38.2521228 116.53112793 38.2592926 C115.57722672 38.26055145 114.6233255 38.2618103 113.64051819 38.2631073 C110.7033423 38.5406291 108.59973256 39.16638883 105.97814941 40.5146637 C103.68219414 43.95859661 103.7278941 45.21679599 103.72659302 49.27061462 C103.72121017 50.47073685 103.71582733 51.67085907 103.71028137 52.90734863 C103.71440536 54.22586319 103.71852936 55.54437775 103.72277832 56.90284729 C103.72002861 58.30402836 103.71634882 59.70520787 103.71180725 61.10638428 C103.70369159 64.12495911 103.70152771 67.14345984 103.70375443 70.16204453 C103.70658528 74.93562126 103.69224399 79.70904972 103.67477417 84.48258972 C103.62772577 98.05706046 103.60380609 111.63152132 103.59729004 125.20606995 C103.59353978 132.70229963 103.57551285 140.19836177 103.54219568 147.69451964 C103.52197145 152.43920612 103.51961627 157.18346078 103.53047585 161.92817283 C103.53308317 164.88175372 103.51907809 167.83508327 103.50039482 170.78859901 C103.49253639 172.80936559 103.50451098 174.83017883 103.51707458 176.85092163 C103.50054085 178.65956444 103.50054085 178.65956444 103.4836731 180.50474548 C103.48258356 181.55077124 103.48149403 182.59679699 103.48037148 183.67452049 C102.849649 187.24135335 101.46939078 188.93430542 98.97814941 191.5146637 C97.04345703 192.14958191 97.04345703 192.14958191 95.00744629 192.16163635 C94.23984985 192.17739716 93.47225342 192.19315796 92.68139648 192.20939636 C91.86151245 192.19927521 91.04162842 192.18915405 90.19689941 192.1787262 C89.34640015 192.18350983 88.49590088 192.18829346 87.61962891 192.19322205 C85.82424059 192.19661944 84.02879028 192.18742806 82.23352051 192.16651917 C79.48683625 192.13974836 76.74423797 192.16626923 73.99768066 192.19825745 C72.2515779 192.19495332 70.50547768 192.18854701 68.75939941 192.1787262 C67.93951538 192.18884735 67.11963135 192.19896851 66.27490234 192.20939636 C65.12350769 192.18575516 65.12350769 192.18575516 63.94885254 192.16163635 C63.27696899 192.15765839 62.60508545 192.15368042 61.9128418 192.14958191 C58.8390156 191.14082814 57.75358432 189.1500564 55.97814941 186.5146637 C55.47872066 183.6773138 55.47872066 183.6773138 55.47935486 180.51147461 C55.46977753 179.3071579 55.4602002 178.10284119 55.45033264 176.86203003 C55.46007614 175.54913498 55.46981964 174.23623993 55.4798584 172.88356018 C55.47603353 171.4804578 55.47041306 170.07735934 55.46313477 168.67427063 C55.45119641 165.65781889 55.45166365 162.6417153 55.46172905 159.62525749 C55.47729944 154.8559302 55.46360602 150.08696008 55.44569397 145.31765747 C55.41488807 136.05669438 55.41337267 126.79584067 55.41534424 117.53483582 C55.4167376 105.7429681 55.40642098 93.9511842 55.36676651 82.15937859 C55.35182229 77.41778959 55.35211037 72.67651694 55.36424434 67.93492305 C55.36895085 64.98691295 55.36144266 62.0390243 55.35070038 59.09103394 C55.3471426 57.07127131 55.35858074 55.05149976 55.37043762 53.0317688 C55.36368011 51.83027191 55.35692261 50.62877502 55.34996033 49.39086914 C55.35054664 48.34651923 55.35113295 47.30216932 55.35173702 46.22617245 C54.92475415 43.12711947 54.11236339 41.7652576 51.97814941 39.5146637 C48.90597059 38.2822653 45.82118806 38.38476344 42.53869629 38.37281799 C40.90680359 38.36226631 40.90680359 38.36226631 39.24194336 38.35150146 C38.07207886 38.34733719 36.90221436 38.34317291 35.69689941 38.33888245 C33.2216304 38.31569412 30.74636994 38.29157719 28.27111816 38.26661682 C24.36692491 38.23142839 20.46304877 38.20211196 16.55871582 38.18873596 C12.79188776 38.17330398 9.02598447 38.13313469 5.25939941 38.08888245 C3.50460266 38.09174507 3.50460266 38.09174507 1.71435547 38.09466553 C0.08246277 38.06992912 0.08246277 38.06992912 -1.58239746 38.04469299 C-2.53851929 38.03882675 -3.49464111 38.03296051 -4.47973633 38.0269165 C-7.77358456 37.36318434 -8.97138144 36.12886766 -11.02185059 33.5146637 C-11.53942871 30.46192932 -11.53942871 30.46192932 -11.55310059 26.9209137 C-11.55825684 25.64345276 -11.56341309 24.36599182 -11.56872559 23.04981995 C-11.56034668 22.38740295 -11.55196777 21.72498596 -11.54333496 21.04249573 C-11.52191008 19.02027922 -11.54314798 17.00161409 -11.56872559 14.97950745 C-11.56356934 13.70204651 -11.55841309 12.42458557 -11.55310059 11.1084137 C-11.54858887 9.93987854 -11.54407715 8.77134338 -11.53942871 7.56739807 C-10.39372803 0.80992574 -6.22688461 0.0137964 0 0 Z " fill="#7c878e" transform="translate(11.0218505859375,-0.5146636962890625)"/>
</svg>
