<?xml version="1.0" encoding="UTF-8"?>
<svg version="1.1" xmlns="http://www.w3.org/2000/svg" width="227" height="176">
<path d="M0 0 C4.33483081 1.15701151 7.09099247 4.43246595 10.13671875 7.5703125 C10.87019531 8.30378906 11.60367188 9.03726562 12.359375 9.79296875 C13.89063386 11.32422761 15.41660464 12.86079107 16.9375 14.40234375 C18.84296268 16.28073058 20.78344196 18.03033193 22.82421875 19.7578125 C27.42327665 23.69327888 31.63063821 28.01033013 35.86206055 32.33276367 C39.46124881 35.98532646 43.18886875 39.40772539 47.06640625 42.76220703 C50.68046989 45.91854611 54.1759743 49.18485695 57.63671875 52.5078125 C58.36375 53.17232422 59.09078125 53.83683594 59.83984375 54.52148438 C65.60686874 60.10964487 65.60686874 60.10964487 66.04296875 64.57421875 C64.70732046 74.10523533 52.31053393 82.54247264 45.7109375 89.12890625 C44.51489422 90.3256243 43.31899932 91.52249066 42.12324524 92.71949768 C39.6328552 95.21135313 37.14068756 97.70141293 34.6472168 100.19018555 C31.44816609 103.38350227 28.25367621 106.58133818 25.06047344 109.78050137 C22.59938192 112.24519814 20.13592405 114.70751859 17.67173195 117.16911507 C16.49200825 118.34817132 15.31302794 119.52797187 14.13480186 120.7085247 C12.4955096 122.35034689 10.85306322 123.98894611 9.2097168 125.62670898 C8.27596725 126.55966293 7.34221771 127.49261688 6.38017273 128.45384216 C3.02370642 131.62032627 0.78212703 131.76322977 -3.79296875 132.09375 C-5.86328125 131.5703125 -5.86328125 131.5703125 -8.08984375 129.67578125 C-10.59157088 125.29500356 -10.38473966 121.46828252 -10.36328125 116.5078125 C-10.35560329 114.72524652 -10.36537767 112.94250035 -10.39453125 111.16015625 C-10.39001953 110.37503662 -10.38550781 109.58991699 -10.38085938 108.78100586 C-11.08031532 105.57575606 -12.25671402 104.55963392 -14.86328125 102.5703125 C-17.72672408 102.17256241 -20.20956292 102.01591936 -23.07250977 102.0402832 C-23.89732849 102.03155182 -24.72214722 102.02282043 -25.57196045 102.01382446 C-28.29559076 101.98944715 -31.01846196 101.99285935 -33.7421875 101.99609375 C-35.63501785 101.98365035 -37.52783665 101.96931661 -39.42063904 101.95317078 C-44.40239845 101.91511725 -49.383959 101.89995259 -54.36584473 101.89038086 C-62.34364492 101.8706488 -70.32129324 101.81383282 -78.29893303 101.76161766 C-81.08810123 101.74625397 -83.87719401 101.73907686 -86.66639709 101.73347473 C-88.37208086 101.7264593 -90.07776427 101.71935844 -91.78344727 101.7121582 C-92.56119003 101.71268692 -93.3389328 101.71321564 -94.14024353 101.71376038 C-97.31468696 101.69592869 -99.82892062 101.58176604 -102.86328125 100.5703125 C-104.14775044 98.00137412 -104.19305269 95.80454913 -104.42578125 92.9453125 C-104.50957031 91.94242187 -104.59335938 90.93953125 -104.6796875 89.90625 C-104.74027344 89.13539062 -104.80085938 88.36453125 -104.86328125 87.5703125 C-106.54534075 86.5709678 -106.54534075 86.5709678 -108.86328125 86.5703125 C-111.02197407 88.32101542 -112.79766359 89.98993896 -114.67578125 92.0078125 C-115.20550537 92.55751709 -115.73522949 93.10722168 -116.28100586 93.67358398 C-119.78347831 97.33445702 -123.1902216 101.07928773 -126.4609375 104.94921875 C-127.86328125 106.5703125 -127.86328125 106.5703125 -129.609375 107.97265625 C-131.1123716 109.54426986 -131.1123716 109.54426986 -130.8359375 111.953125 C-129.59266742 115.2984702 -127.87658177 116.98355506 -125.30078125 119.4453125 C-123.94726562 120.74275391 -123.94726562 120.74275391 -122.56640625 122.06640625 C-115.3170362 129.14210459 -115.3170362 129.14210459 -106.86328125 134.5703125 C-106.20328125 134.2403125 -105.54328125 133.9103125 -104.86328125 133.5703125 C-104.54566942 131.37425358 -104.48416118 129.20869595 -104.40234375 126.9921875 C-103.6527708 123.62454089 -102.28336867 122.01541258 -99.86328125 119.5703125 C-96.94152832 118.94212341 -96.94152832 118.94212341 -93.50585938 118.93920898 C-91.5736554 118.92040932 -91.5736554 118.92040932 -89.60241699 118.90122986 C-88.19977813 118.91349817 -86.79714894 118.92691819 -85.39453125 118.94140625 C-83.95251283 118.94057734 -82.5104945 118.93811713 -81.06848145 118.93409729 C-78.04878236 118.93124071 -75.02982559 118.94592506 -72.01025391 118.97338867 C-68.14288173 119.00747274 -64.27683665 119.00145279 -60.40940094 118.9827261 C-57.43244398 118.97214865 -54.45579492 118.98110037 -51.47886658 118.99611092 C-50.0531455 119.00128783 -48.62739219 119.00081685 -47.20167542 118.99456596 C-45.2079756 118.98910592 -43.21425976 119.01235646 -41.22070312 119.03686523 C-40.08693237 119.04306381 -38.95316162 119.04926239 -37.78503418 119.0556488 C-34.23414604 119.681134 -33.06832826 120.7779046 -30.86328125 123.5703125 C-28.8959883 128.74356434 -29.30986576 135.20571903 -30.55078125 140.5078125 C-32.36460948 143.358114 -33.75625292 144.15550053 -36.86328125 145.5703125 C-40.27350511 145.98649787 -43.65822237 145.93985872 -47.08984375 145.90625 C-49.11068034 145.91875479 -51.1315137 145.93179156 -53.15234375 145.9453125 C-56.33019297 145.94925402 -59.5077272 145.94522341 -62.68554688 145.93066406 C-65.75829422 145.92212338 -68.82971347 145.94371704 -71.90234375 145.96875 C-72.85549469 145.95540619 -73.80864563 145.94206238 -74.79067993 145.92831421 C-77.24627624 145.95596361 -79.46801799 146.02967 -81.86328125 146.5703125 C-84.68877325 149.59151669 -85.23292924 152.23388946 -85.26953125 156.29296875 C-85.29144531 157.16115234 -85.31335938 158.02933594 -85.3359375 158.92382812 C-85.35420609 160.73372356 -85.37243509 162.5436194 -85.390625 164.35351562 C-85.55794444 170.97247586 -85.55794444 170.97247586 -87.1640625 174.1171875 C-89.46079391 176.08128884 -91.71526755 176.70029525 -94.70703125 176.90625 C-99.17968024 176.20942425 -101.80391993 172.6657877 -104.86328125 169.5703125 C-105.84868947 168.65810989 -106.83997863 167.75223386 -107.8359375 166.8515625 C-113.9666217 161.30704962 -119.89118543 155.59666979 -125.69873047 149.71557617 C-128.29600808 147.09720698 -130.92445525 144.57899949 -133.73828125 142.1953125 C-138.3226397 138.30148503 -142.47689678 133.98490632 -146.70141602 129.71044922 C-150.49333659 125.89021921 -154.35713878 122.23850712 -158.5078125 118.8046875 C-160.92468786 116.60372896 -160.9052926 115.19549541 -161.2795105 111.85679626 C-161.20900999 107.5901042 -159.87537393 105.64607543 -156.95089722 102.65145874 C-156.08599167 101.82733994 -156.08599167 101.82733994 -155.20361328 100.98657227 C-154.60210449 100.38228897 -154.0005957 99.77800568 -153.38085938 99.15541077 C-151.39613275 97.17115755 -149.38451518 95.21681365 -147.37109375 93.26171875 C-145.98416019 91.88717545 -144.5989183 90.5109233 -143.21530151 89.13304138 C-139.5741149 85.51668662 -135.90911181 81.92541705 -132.23901367 78.33843994 C-129.24080051 75.40031137 -126.25945815 72.44538946 -123.27893257 69.48933506 C-117.13048644 63.39149201 -110.97105921 57.30465838 -104.78173828 51.24829102 C-103.92290543 50.40291779 -103.92290543 50.40291779 -103.04672241 49.54046631 C-98.12309326 44.73828744 -98.12309326 44.73828744 -94.05078125 44.1953125 C-90.86328125 44.5703125 -90.86328125 44.5703125 -88.1953125 46.46875 C-84.49198263 51.39411669 -85.30174538 56.30417801 -85.4140625 62.265625 C-85.40761719 63.12929688 -85.40117188 63.99296875 -85.39453125 64.8828125 C-85.41064453 65.66269531 -85.42675781 66.44257812 -85.44335938 67.24609375 C-84.5412389 70.86065055 -82.74636683 72.26244659 -79.86328125 74.5703125 C-76.86159663 75.0578629 -74.42840724 75.24301561 -71.43286133 75.19799805 C-70.59653671 75.20526917 -69.7602121 75.21254028 -68.89854431 75.22003174 C-66.14286683 75.23858822 -63.38849001 75.22257456 -60.6328125 75.20703125 C-58.71659687 75.21507057 -56.80039018 75.2255882 -54.88420105 75.23847961 C-49.84608503 75.26702253 -44.80838051 75.26760304 -39.77020264 75.26062012 C-31.69538665 75.25329371 -23.62070343 75.28453384 -15.54599571 75.32306862 C-12.72179711 75.33194798 -9.89788293 75.3266063 -7.07368469 75.31950378 C-5.35096152 75.32288661 -3.62823901 75.32663539 -1.90551758 75.33081055 C-1.11639984 75.32511551 -0.3272821 75.31942047 0.48574829 75.31355286 C5.90965793 75.34325168 5.90965793 75.34325168 8.13671875 77.5703125 C8.55078125 80.171875 8.55078125 80.171875 8.76171875 83.1953125 C8.83648437 84.19820313 8.91125 85.20109375 8.98828125 86.234375 C9.03726563 87.00523438 9.08625 87.77609375 9.13671875 88.5703125 C10.86148786 89.52533408 10.86148786 89.52533408 13.13671875 89.5703125 C15.25091288 87.81648358 15.25091288 87.81648358 16.61083984 86.25 C18.43301599 84.2441485 20.3773562 82.40364918 22.34375 80.5390625 C23.87917998 79.04976132 25.41432976 77.56017122 26.94921875 76.0703125 C27.73748047 75.32394531 28.52574219 74.57757813 29.33789062 73.80859375 C30.08232422 73.08027344 30.82675781 72.35195312 31.59375 71.6015625 C32.2741333 70.94736328 32.9545166 70.29316406 33.65551758 69.61914062 C35.50059385 67.06699292 35.52846907 65.65514674 35.13671875 62.5703125 C33.925702 60.71784757 33.925702 60.71784757 32.13671875 59.1953125 C31.49734375 58.60105469 30.85796875 58.00679687 30.19921875 57.39453125 C29.51859375 56.79253906 28.83796875 56.19054688 28.13671875 55.5703125 C27.14671875 54.68279297 27.14671875 54.68279297 26.13671875 53.77734375 C24.80816983 52.60188934 23.46960093 51.43765948 22.12109375 50.28515625 C20.79434405 49.13861468 19.49183111 47.96343653 18.21484375 46.76171875 C17.6115625 46.20355469 17.00828125 45.64539062 16.38671875 45.0703125 C15.855625 44.565 15.32453125 44.0596875 14.77734375 43.5390625 C13.13046385 42.3324018 13.13046385 42.3324018 10.93359375 42.9140625 C10.340625 43.130625 9.74765625 43.3471875 9.13671875 43.5703125 C9.12253906 44.16199219 9.10835937 44.75367188 9.09375 45.36328125 C9.04605469 46.15347656 8.99835938 46.94367187 8.94921875 47.7578125 C8.91441406 48.53511719 8.87960938 49.31242187 8.84375 50.11328125 C8.07374291 52.78916223 7.10327464 54.57269621 5.07963562 56.50361633 C0.41466709 59.06476762 -5.57170472 58.22849431 -10.73828125 58.1640625 C-12.10921117 58.16235002 -13.48014437 58.16241848 -14.85107422 58.16418457 C-17.71939576 58.16253396 -20.58693323 58.14388615 -23.45507812 58.11230469 C-27.12376831 58.07262667 -30.79143258 58.06826078 -34.46029663 58.07576752 C-37.28972704 58.07884337 -40.11892865 58.06669507 -42.94830322 58.04963684 C-44.95623462 58.03922862 -46.96420962 58.03875978 -48.97216797 58.03845215 C-50.19693848 58.02254028 -51.42170898 58.00662842 -52.68359375 57.99023438 C-54.29645264 57.97760559 -54.29645264 57.97760559 -55.94189453 57.96472168 C-59.26992123 57.51541304 -61.17139858 56.54785274 -63.86328125 54.5703125 C-65.49169826 51.31347847 -65.13123702 47.77072915 -65.17578125 44.1953125 C-65.21928711 43.04289062 -65.21928711 43.04289062 -65.26367188 41.8671875 C-65.27205078 41.12210938 -65.28042969 40.37703125 -65.2890625 39.609375 C-65.30364502 38.93084473 -65.31822754 38.25231445 -65.33325195 37.55322266 C-64.58389466 34.3915188 -63.55816685 33.41583039 -60.86328125 31.5703125 C-57.50289809 30.96516038 -54.17689398 30.98925694 -50.76953125 30.99609375 C-49.78585571 30.98192917 -48.80218018 30.96776459 -47.78869629 30.95317078 C-44.64678025 30.91125343 -41.50543758 30.89603099 -38.36328125 30.8828125 C-35.2213927 30.85373429 -32.07964884 30.81915069 -28.93786621 30.78031921 C-26.98358694 30.7578805 -25.02921845 30.74203155 -23.0748291 30.73347473 C-22.18710815 30.72644028 -21.29938721 30.71940582 -20.38476562 30.7121582 C-19.60629272 30.70867874 -18.82781982 30.70519928 -18.02575684 30.70161438 C-15.85683741 30.56992124 -13.94829861 30.16657426 -11.86328125 29.5703125 C-10.99692178 26.56335741 -10.7294863 23.85106821 -10.6875 20.7265625 C-10.66365234 19.81003906 -10.63980469 18.89351562 -10.61523438 17.94921875 C-10.5722707 16.0301744 -10.5410172 14.11083209 -10.52148438 12.19140625 C-10.31057297 5.21661523 -10.31057297 5.21661523 -8.0546875 1.95703125 C-5.39408089 0.27340318 -3.14490003 -0.17439372 0 0 Z " fill="#003da5" transform="translate(160.86328125,-0.5703125)"/>
</svg>
