<?xml version="1.0" encoding="UTF-8"?><svg id="_4.5M" xmlns="http://www.w3.org/2000/svg" viewBox="0 0 300 300"><defs><style>.cls-1{fill:#013da5;}</style></defs><path class="cls-1" d="M78.667,107.362l210.283-.165c4.985.155,8.98,4.15,9.135,9.135v124.402c-.329,4.751-3.458,9.473-8.54,9.73H79.674c-4.656-.304-8.44-4.54-8.54-9.141l.427-127.511c.799-3.074,3.983-5.925,7.105-6.45ZM104.752,120.187h-21.217v20.628c11.37.867,20.735-9.753,21.217-20.628ZM251.505,120.183H117.715c-.525,18.262-15.844,33.631-34.174,34.192l-.008,49.503c18.451-.633,33.938,16.174,34.183,34.183h133.789c.458-17.364,15.695-34.753,33.585-34.184l.016-49.759c-18.006-.17-33.291-16.121-33.601-33.936ZM285.095,120.187h-20.628c-.067,10.98,9.546,20.98,20.628,20.628v-20.628ZM83.535,216.841v21.217h21.217c.501-11.262-9.951-21.809-21.217-21.217ZM285.095,216.841c-11.228-.566-20.573,10.365-20.628,21.217h20.628v-21.217Z"/><path class="cls-1" d="M34.918,62.198H13.701v20.628c11.37.867,20.735-9.753,21.217-20.628ZM215.267,100.698l.004-4.568c-18.006-.17-33.291-16.121-33.601-33.936H47.88c-.525,18.262-15.844,33.631-34.174,34.192l-.008,49.503c18.451-.633,33.938,16.174,34.183,34.183h14.054s-.421,12.403-.421,12.403H9.84c-4.656-.304-8.44-4.54-8.54-9.141l.427-127.511c.799-3.074,3.983-5.925,7.105-6.45l210.283-.165c4.985.155,8.98,4.15,9.135,9.135v42.355h-12.984ZM215.261,62.198h-20.628c-.067,10.98,9.546,20.98,20.628,20.628v-20.628ZM13.701,158.853v21.217h21.217c.501-11.262-9.951-21.809-21.217-21.217Z"/><path class="cls-1" d="M178.3,129.2c49.281-5.025,76,56.523,38.118,88.213-33.905,28.363-84.205.614-81.012-42.704,1.625-22.045,20.573-43.234,42.894-45.51ZM178.881,142.158c-13.708,1.638-25.623,13.831-29.17,26.819-8.691,31.826,24.822,58.905,53.643,41.856,33.994-20.109,16.805-73.608-24.474-68.675Z"/><path class="cls-1" d="M108.16,168.062c13.055-1.601,15.403,18.206,3.822,20.353-15.421,2.858-16.564-18.79-3.822-20.353Z"/><path class="cls-1" d="M179.166,165.128c-.721.77-.866,2.594-.735,3.63.922,7.302,17.316,4.177,21.903,13.5,4.624,9.4-.303,20.296-10.658,22.261.62,4.616-1.594,8.629-6.707,7.481-4.533-1.018-2.693-5.76-3.444-6.869-.146-.216-3.82-1.364-4.849-1.929-4.132-2.267-11.83-9.126-4.725-12.806,5.296-2.743,7.84,3.254,12.588,4.348,4.283.987,10.198-1.102,8.594-6.218-1.294-4.129-11.567-5.041-15.475-6.935-9.55-4.629-10.852-19.881-1.771-25.568,1.183-.741,5.465-2.067,5.637-2.319.822-1.204-1.258-6.023,4.504-6.442,6.78-.493,4.512,4.791,5.872,7.121.329.564,7.277,3.096,9.416,6.495,2.754,4.376-1.492,9.761-6.011,7.781-1.102-.483-1.831-1.808-2.899-2.405-2.914-1.63-8.469-4.085-11.24-1.126Z"/></svg>