<?xml version="1.0" encoding="UTF-8"?><svg id="_2M" xmlns="http://www.w3.org/2000/svg" viewBox="0 0 300 300"><defs><style>.cls-1{fill:#013da5;}</style></defs><path class="cls-1" d="M160.25,81.008c13.921,2.683,29.245,12.989,33.448,26.946,3.104,10.308-4.332,19.394-15.029,16.056-7.769-2.425-7.653-17.244-22.199-21.158-24.84-6.683-43.039,19.739-19.083,32.506,17.763,9.466,49.539,9.963,58.052,32.806,9.717,26.075-9.199,51.539-35.249,55.47,2.807,10.548-4.796,24.598-16.478,17.936-8.725-4.975-4.962-16.581-7.297-18.512-13.797-3.049-38.797-18.896-33.623-35.66.959-3.106,6.296-6.842,9.44-7.154,9.923-.985,14.136,14.325,23.238,18.98,11.456,5.858,29.026,5.105,36.5-6.655,15.196-23.913-28.612-28.946-41.749-34.557-40.312-17.215-33.998-67.588,7.078-77.036-3.223-24.921,26.587-24.919,22.952.032Z"/><path class="cls-1" d="M13.018,194.83c-.493,0-1.011-.024-1.56-.075-6.47-.594-8.102-9.443-9.219-18.455l-.139-1.11c-5.732-45.229,7.345-88.56,36.823-122.01C67.99,20.196,108.794,1.279,150.873,1.279c38.36,0,73.805,15.74,102.503,45.524l5.627,5.801.166-10.592v-18.452c0-4.2,4.529-7.024,8.757-7.024,2.225,0,6.132.8,7.289,6.143,1.557,7.184,1.235,38.63.373,46.689-.448,4.182-2.951,8.912-7.395,9.525l-48.319-.424c-3.124-.027-6.176-1.737-7.309-4.648-.138-.354-.247-.716-.326-1.082-.46-2.133.136-4.396,1.724-6.544.062-.083.149-.186.257-.304,1.452-1.59,3.553-2.43,5.706-2.43h26.51l-4.768-5.18c-24.518-26.644-57.084-41.316-91.696-41.316-42.604,0-83.232,22.284-108.679,59.605-17.742,26.025-26.012,56.992-23.912,89.558.139,2.142.637,7.757,1.131,10.544,1.169,6.616,2.737,12.693-.289,16.302-1.048,1.249-2.75,1.855-5.204,1.855Z"/><path class="cls-1" d="M286.298,104.649c.493,0,1.011.024,1.56.075,6.47.594,8.102,9.443,9.219,18.455l.139,1.11c5.732,45.229-7.345,88.56-36.823,122.01-29.066,32.983-69.871,51.899-111.95,51.899-38.36,0-73.805-15.74-102.503-45.524l-5.627-5.801-.166,10.592v18.452c0,4.2-4.529,7.024-8.757,7.024-2.225,0-6.132-.8-7.289-6.143-1.557-7.184-1.235-38.63-.373-46.689.448-4.182,2.951-8.912,7.395-9.525l48.319.424c3.124.027,6.176,1.737,7.309,4.648.138.354.247.716.326,1.082.46,2.133-.136,4.396-1.724,6.544-.062.083-.149.186-.257.304-1.452,1.59-3.553,2.43-5.706,2.43h-26.51l4.768,5.18c24.518,26.644,57.084,41.316,91.696,41.316,42.604,0,83.232-22.284,108.679-59.605,17.742-26.025,26.012-56.992,23.912-89.558-.139-2.142-.637-7.757-1.131-10.544-1.169-6.616-2.737-12.693.289-16.302,1.048-1.249,2.75-1.855,5.204-1.855Z"/></svg>