<?xml version="1.0" encoding="UTF-8"?><svg id="_500K" xmlns="http://www.w3.org/2000/svg" viewBox="0 0 300 300"><defs><style>.cls-1{fill:#013da5;}</style></defs><g id="_9c1NBv"><path class="cls-1" d="M108.994,167.77c.811,8.552-4.502,16.576-13.328,17.293-1.047,6.569-3.304,12.695-7.094,18.143-4.96,7.129-12.552,11.832-17.635,18.856l5.033,3.733c3.924,3.413,2.466,5.303.314,9.088-4.361,7.667-10.605,18.301-15.742,25.299-2.12,2.888-3.937,3.986-7.468,2.248L2.868,228.596c-2.564-2.187-2.396-4.255-.95-7.076,4.497-8.776,12.505-17.517,17.338-26.31,1.4-1.504,2.296-1.572,4.257-.99,1.467.436,2.264,2.003,3.15.57,2.611-4.223,3.844-18.348,4.467-23.858.933-8.251,1.163-16.842,2.301-25.045,1.063-7.663,2.407-9.941,8.085-15.04,1.595-1.433,12.527-9.629,12.677-10.477-3.904-5.009-9.403-8.949-13.514-13.784-5.194-6.108-5.417-12.872-.184-19.072l52.568-52.663c4.732-3.963,12.134-3.431,16.631.637l58.367,58.266c5.282,6.212,5.557,12.765.184,19.072l-51.432,51.843c-2.25,1.695-4.937,3.045-7.818,3.101ZM100.644,41.766c-2.471.221-6.006,5.392-8.044,6.939l63.418,63.303c2.088-2.556,8.549-6.621,6.166-10.41-18.94-18.961-37.918-37.883-56.896-56.805-1.339-1.335-2.177-3.248-4.644-3.027ZM103.57,87.763c-8.279-8.172-16.673-16.237-24.799-24.568l-.617-.282-30.644,30.951c-1.369,1.547-2.083,3.494-.753,5.325l35.653,36.016c5.496-4.799,9.676-11.121,15.788-15.157,12.883-4.788,21.864,8.351,16.427,19.978-2.419,5.174-7.444,10.575-10.467,15.523,1.362,2.29,3.171,3.473,5.804,2.281l31.872-31.914c-12.679-12.793-25.453-25.508-38.265-38.154ZM102.345,128.097c-1.325.306-3.475,3.063-4.453,4.015-8.961,8.732-17.663,17.745-26.528,26.576-1.148,1.143-2.66,2.07-3.76,3.408-2.429,2.954-3.938,7.876-3.166,11.665.513,2.519,8.251,9.95,10.517,11.964,3.405,3.027,5.797,5.704,8.699.203,3.674-6.966,1.673-16.962,4.966-23.361,4.326-8.405,12.48-16.937,17.486-25.185,1.519-2.502,2.836-4.752.899-7.57-1.095-1.592-2.77-2.152-4.66-1.715ZM67.144,133.624c-4.727,4.476-12.804,8.068-9.481,15.946,1.074,2.547,4.247,5.126,6.993,3.4l11.076-11.073-8.588-8.273ZM96.949,176.249c4.093-1.99,6.388-8.417,1.776-11.076-1.012,3.585-1.907,7.324-1.776,11.076ZM64.384,238.79c.37-1.811,4.308-6.035,3.895-7.546-.082-.3-.362-.536-.592-.738l-41.308-26.113-1.853-.644c-.472.093-4.7,5.807-4.937,6.468-.135.377-.216.517.152.812l42.94,27.426,1.703.335Z"/><path class="cls-1" d="M175.253,20.219l99.918-.184c12.66.86,21.814,9.51,22.68,22.279l.188,206.579c-.77,11.625-8.509,20.988-20.117,22.885-34.83.718-69.9.756-104.726.094-11.935-1.88-19.585-11.64-20.161-23.498l-.098-105.911c.081-3.112,1.191-6.482,4.99-5.62,2.133.484,2.382,3.807,2.514,5.631.564,7.788-.776,16.75-.118,24.318.197,2.263,2.493,3.804,2.768,6.941,1.264,14.427-1.313,30.935.015,45.312.352,3.816,4.135,2.431,6.68,2.407,38.447-.371,76.912.201,115.361-.074,1.063.091,2.535-.708,2.744-1.818l-.302-155.226c-.649-.949-1.807-1.305-2.915-1.318-38.009-.331-76.05.594-114.055.132-1.829-.022-6.369-1.186-7.399,1.046-1.079,2.338.969,9.15-1.348,10.697-.413.276-.752.436-1.255.259-1.74-2.035-7.326-6.103-7.714-8.602.363-7.985-.579-16.506-.057-24.427.82-12.438,10.047-21.217,22.407-21.902ZM287.75,55.694c-.207-4.9-.009-10.054-.014-14.986-.004-4.454-7.064-10.642-11.578-10.574l-101.006.075c-5.07-.298-12.198,5.957-12.193,10.939l.014,15.475c2.846-2.493,7.327-2.034,10.926-1.978.854.013,1.648.343,2.578.352,36.494.361,73.209-.858,109.576.442.547.134,1.009.623,1.532.749.97.234.168-.453.166-.494ZM163.129,228.641l.02,21.991c.005,5.748,7.138,11.859,12.865,11.569l99.05-.11c4.984.38,12.869-5.557,12.864-10.595l-.021-22.48c0-.064.816-.668-.165-.492-1.334.24-3.142,1.646-4.869,1.326l-116.01.105-3.734-1.314Z"/><path class="cls-1" d="M211.13,85.328c2.455-.399,3.684.347,5.29,2.043,6.73,7.108,13.458,20.867,15.975,30.301,6.458,24.203,1.035,54.358-15.881,73.282-2.535,2.836-6.512,3.548-8.79.021-2.637-4.084,1.156-6.583,3.197-9.509,18.301-26.231,18.919-56.386.896-82.962-1.166-1.719-4.319-4.988-4.686-6.716-.609-2.866.987-5.97,3.998-6.46Z"/><path class="cls-1" d="M194.855,100.329c4.57-.744,7.707,4.851,9.804,8.282,11.728,19.19,10.882,43.024-.595,62.102-1.02,1.696-3.088,5.039-4.348,6.401-3.469,3.749-9.517.724-8.919-4.341.254-2.149,2.502-4.026,3.625-5.825,10.246-16.408,11.68-35.926,1.445-52.79-1.261-2.078-4.794-5.946-5.088-7.961-.376-2.571,1.453-5.441,4.076-5.868Z"/><path class="cls-1" d="M179.231,115.981c4.894-.8,7.482,5.267,9.041,9.046,4.494,10.891,3.34,26.572-3.886,36.134-2.835,3.752-9.074,2.243-9.288-2.735-.124-2.891,1.601-4.054,2.792-6.354,3.321-6.416,3.893-14.933,1.532-21.766-.885-2.562-4.136-6.726-4.346-8.693-.274-2.569,1.57-5.21,4.155-5.632Z"/><path class="cls-1" d="M223.003,235.838c15.723-2.301,17.532,19.802,4.086,21.655-15.092,2.079-17.008-19.764-4.086-21.655Z"/><path class="cls-1" d="M208.147,39.383l33.143-.08c3.668,1.046,3.012,6.234-.647,6.802-9.787-.762-21.354,1.123-30.929.049-3.709-.416-5.363-5.178-1.567-6.771Z"/></g></svg>