<?xml version="1.0" encoding="UTF-8"?><svg id="_40" xmlns="http://www.w3.org/2000/svg" viewBox="0 0 300 300"><defs><style>.cls-1{fill:#013da5;}</style></defs><path class="cls-1" d="M145.661,44.419c16.813-2.698,29.433,15.075,18.23,27.923-13.177,15.113-38.547,1.021-31.368-17.159,1.908-4.832,7.653-9.884,13.138-10.764Z"/><path class="cls-1" d="M269.809,107.194c1.723,9.815,3.112,25.651-10.589,27.721v84.923c6.736.853,11.975,7.238,11.975,14.046,0,7.366-.068,15.326-.068,15.326h17.714c5.731,0,7.447,6.042,7.991,8.861.999,5.173.925,24.075.223,29.552-.859,6.71-6.484,10.069-13.002,10.069-53.116,0-201.889.272-264.146.272-7.324,0-15.7-2.326-17.027-10.414-.795-4.841-.77-24.75.147-29.479.566-2.919,2.674-8.861,8.139-8.861h17.565c.87-.52,1.137-1.14,1.317-2.065,1.93-9.911-5.477-25.016,10.42-27.772l.131-82.878c-.475-2.388-3.508-2.207-5.728-3.698-8.15-5.474-3.729-17.523-4.823-25.603H12.043c-.99,0-5.228.475-8.851-4.838-3.036-4.453-4.106-14.25,3.605-18.259L143.954,4.147c3.763-2.525,8.185-2.525,11.948,0l138.07,79.917c6.045,3.559,5.076,12.325,4.112,16.36-.627,2.625-4.106,6.521-9.394,6.771h-18.882ZM268.558,86.195L151.52,18.567c-.99-.572-2.209-.572-3.199,0L31.295,86.194c-2.831,1.636-1.671,5.965,1.599,5.965l234.064.002c3.27,0,4.431-4.329,1.599-5.965ZM89.671,107.194h-44.595v13.169c0,2.607,2.113,4.721,4.72,4.721h35.155c2.607,0,4.72-2.113,4.72-4.721v-13.169ZM118.75,107.194h-13.174v18.578c0,4.736-7.779,9.355-12.35,9.999l.049,82.481.841,1.686c4.556-.653,11.459,5.091,11.459,9.043v20.229h13.174v-21.88c0-1.823,5.1-7.172,7.765-7.146l.177-86.019c-3.096-1.051-7.942-5.24-7.942-8.393v-18.578ZM166.078,107.194h-31.422v13.454c0,2.45,1.986,4.436,4.436,4.436h22.55c2.45,0,4.436-1.986,4.436-4.436v-13.454ZM195.158,107.194h-13.174v18.578c0,2.605-4.521,7.736-7.765,7.972l-.193,86.925c3.534-.168,7.958,4.611,7.958,7.487v21.055h13.174v-21.055c0-2.741,7.582-9.622,11.416-7.846l-.101-84.951c-4.108-.044-11.315-4.912-11.315-8.761v-19.403ZM254.781,107.194h-43.717v13.524c0,2.411,1.955,4.366,4.366,4.366h34.986c2.411,0,4.366-1.955,4.366-4.366v-13.524ZM79.912,135.267h-25.957v84.219h25.957v-84.219ZM160.711,135.267h-21.566v85.045h21.566v-85.045ZM245.901,135.267h-25.957v84.219h26.141l-.184-84.219ZM89.671,249.21l-.201-13.764c-.045-3.088-2.561-5.567-5.649-5.567h-32.895c-3.088,0-5.604,2.48-5.649,5.567l-.201,13.764h44.595ZM161.594,230.495h-22.453c-2.477,0-4.484,2.008-4.484,4.485v14.231h31.422v-14.231c0-2.477-2.008-4.485-4.484-4.485ZM249.288,230.495h-32.642c-3.083,0-5.582,2.499-5.582,5.582v13.133h43.717v-13.222c0-3.034-2.459-5.494-5.493-5.494ZM278.224,261.779H21.633c-3.005,0-5.442,2.436-5.442,5.442v11.042c0,3.006,2.436,5.442,5.442,5.442h256.591c3.005,0,5.442-2.436,5.442-5.442v-11.042c0-3.006-2.436-5.442-5.442-5.442Z"/><path class="cls-1" d="M146.765,45.637c13.767-2.209,24.101,12.344,14.927,22.865-10.79,12.375-31.564.836-25.686-14.051,1.562-3.956,6.267-8.093,10.758-8.814Z"/></svg>